<svg width="75" height="75" viewBox="0 0 75 75" fill="none" xmlns="http://www.w3.org/2000/svg">
<path d="M66.3261 62.5584L65.7939 59.171C65.3481 56.3308 63.564 53.8786 60.9968 52.5828L49.8034 46.9215C48.2987 46.1616 47.8997 43.8276 47.8997 43.8276C47.8053 43.6754 47.6295 43.5929 47.4527 43.6205C47.2756 43.6469 47.1318 43.7755 47.0851 43.9483L45.7742 48.9924L37.499 65.5193L29.2252 48.9924L27.9129 43.9483C27.8678 43.7755 27.7223 43.6467 27.5452 43.6205C27.3681 43.5929 27.1941 43.6754 27.0995 43.8276C27.0995 43.8276 26.7004 46.1617 25.196 46.9215L14.0011 52.5828C11.4365 53.8786 9.65244 56.3308 9.20669 59.171L8.6732 62.5584C8.48555 63.7681 8.73501 65.5428 9.81695 66.43C11.2651 67.6136 16.615 74.9999 37.499 74.9999C58.3844 74.9999 63.7329 67.6136 65.1822 66.43C66.266 65.5429 66.5155 63.7681 66.3261 62.5584Z" fill="#1C2430"/>
<path d="M26.8691 25.4823C26.6236 18.6019 37.1081 18.8997 41.83 11.2293C43.2603 13.8294 45.7315 17.6297 48.0067 20.7125C48.0424 35.5005 49.0763 46.343 59.6789 41.0413C59.6789 41.0413 54.0672 37.6578 53.7805 32.9319C53.288 24.8215 54.4045 18.8817 53.7805 14.6688C53.731 14.3243 53.6569 13.9748 53.5773 13.6236C52.7874 5.59248 45.7275 0.0260742 37.5496 0.00292969C37.5181 0 37.4989 0 37.4989 0C28.3831 0 22.1992 8.03379 21.2173 14.6688C20.5933 18.8817 21.7098 24.8213 21.2173 32.9319C20.9307 37.6578 15.3188 41.0413 15.3188 41.0413C26.1313 46.4484 27.2627 36.5155 26.8691 25.4823Z" fill="#1C2430"/>
</svg>
