<svg width="75" height="75" viewBox="0 0 75 75" fill="none" xmlns="http://www.w3.org/2000/svg">
<g clip-path="url(#clip0_258_393)">
<path d="M63.1204 59.3948C61.5606 56.7346 59.1486 55.1349 56.8273 54.0674C54.5049 53.001 52.2076 52.4249 50.8242 51.9027C49.7319 51.4961 48.5368 50.8602 47.6866 50.1745C47.2601 49.8336 46.9232 49.4807 46.7188 49.1737C46.5105 48.8627 46.4458 48.6235 46.4468 48.4641C46.4468 47.3637 46.4468 46.8674 46.4468 45.194C47.9119 43.5644 50.0179 41.0377 50.8821 37.032C51.1851 36.8955 51.4841 36.742 51.7721 36.5418C52.4887 36.0474 53.0966 35.3277 53.6109 34.3518C54.1302 33.3711 54.5887 32.1163 55.0791 30.402C55.3273 29.531 55.442 28.7754 55.442 28.1037C55.443 27.3282 55.2835 26.6545 54.9905 26.1083C54.9635 26.0585 54.9287 26.0215 54.8998 25.9747C55.5347 22.1753 58.0046 3.7524 46.102 4.2109C43.2953 1.14908 36.151 -2.67826 28.2413 2.67999C19.598 8.53556 18.0592 22.1095 20.5079 25.4196C20.3225 25.6159 20.149 25.8431 20.0086 26.1084C19.7156 26.6546 19.5551 27.3283 19.5561 28.1038C19.5561 28.7775 19.6717 29.5331 19.9198 30.4022C20.5756 32.6866 21.1686 34.1617 21.9351 35.2442C22.3189 35.7814 22.7544 36.213 23.2289 36.5419C23.5169 36.7421 23.816 36.8957 24.1179 37.0322C24.983 41.0379 27.0871 43.5645 28.5521 45.1941C28.5521 46.8655 28.5521 47.3639 28.5521 48.4643C28.5551 48.6018 28.4864 48.853 28.2592 49.1779C27.9282 49.6624 27.2784 50.2424 26.5229 50.7327C25.7704 51.2261 24.9133 51.6437 24.1947 51.897C23.2607 52.2258 21.9162 52.5947 20.4449 53.114C18.2374 53.8963 15.7057 55.0237 13.6785 57.0469C11.6462 59.0633 10.2031 62.0193 10.2149 66.0739C10.2149 66.5902 10.2379 67.1245 10.2848 67.6786C10.3147 68.0234 10.4363 68.3095 10.5827 68.5537C10.8628 69.0081 11.2425 69.36 11.7189 69.7189C12.5521 70.3378 13.7103 70.9448 15.2143 71.5458C19.7143 73.3339 27.326 74.9974 37.5004 75.0004C45.767 75.0004 52.3481 73.896 56.9339 72.5275C59.2283 71.8408 61.0214 71.0933 62.309 70.3518C62.9549 69.9771 63.4741 69.6093 63.8847 69.2097C64.0901 69.0083 64.2694 68.797 64.4179 68.5539C64.5644 68.3097 64.686 68.0236 64.7159 67.6788C64.7617 67.1256 64.7847 66.5933 64.7847 66.078C64.7869 63.3755 64.159 61.1628 63.1204 59.3948ZM47.1524 52.5544C47.2032 52.5882 47.2601 52.6121 47.3119 52.6461L43.3939 62.2203L38.6697 56.3139L45.5528 51.2557C46.0223 51.7361 46.5644 52.1677 47.1524 52.5544ZM26.187 36.0223L26.0733 35.3794L25.4593 35.1601C25.0686 35.0207 24.7705 34.8781 24.5103 34.6977C24.1267 34.4265 23.7779 34.0568 23.3721 33.2983C22.9705 32.5448 22.5439 31.4186 22.0784 29.7859C21.874 29.0713 21.8012 28.5162 21.8012 28.1035C21.8023 27.6251 21.8941 27.344 21.9877 27.1676C22.1292 26.9104 22.3027 26.8008 22.5239 26.7121C22.5258 26.711 22.5278 26.711 22.5297 26.71C24.3357 28.3846 26.7098 33.2982 26.7098 33.2982L26.1994 25.1333C26.1994 25.1333 37.4261 22.5818 45.0808 15.4375C47.6323 17.9889 49.1632 28.1951 49.1632 28.1951L49.6736 31.7672L52.0196 26.6233C52.0985 26.6223 52.4483 26.6582 52.6806 26.8137C52.8092 26.8955 52.9138 26.9911 53.0094 27.1676C53.1032 27.344 53.1949 27.6241 53.1958 28.1035C53.1968 28.5162 53.123 29.0702 52.9197 29.7859C52.3006 31.9666 51.7456 33.2344 51.2371 33.9381C50.982 34.2929 50.7488 34.5162 50.4896 34.6977C50.2295 34.8781 49.9315 35.0205 49.5407 35.1601L48.9258 35.3794L48.8131 36.0223C48.0945 40.0449 46.0204 42.3084 44.4895 44.0138L44.2015 44.3337V44.7652C44.2015 46.8055 44.2015 47.2719 44.2015 48.464C44.2025 49.0032 44.3511 49.4986 44.5762 49.9451L37.4997 55.1459L30.4113 49.9372C30.6385 49.4946 30.7941 49.0042 30.796 48.464C30.796 47.2719 30.796 46.8065 30.796 44.7652V44.3337L30.508 44.0138C28.9778 42.3084 26.9056 40.0458 26.187 36.0223ZM28.6359 51.9743C28.921 51.7471 29.1921 51.506 29.4413 51.2508L36.3315 56.3139L31.6062 62.2203L27.6902 52.6482C28.016 52.4368 28.3349 52.2135 28.6359 51.9743ZM62.4816 67.411C62.4338 67.4869 62.2583 67.684 61.9484 67.9114C61.3633 68.3519 60.3466 68.906 58.9692 69.4542C54.826 71.1087 47.4296 72.7571 37.5004 72.7552C29.4372 72.7552 23.0503 71.6727 18.7097 70.3751C16.5419 69.7293 14.8823 69.0236 13.813 68.4058C13.2798 68.0987 12.8962 67.8116 12.6868 67.6044C12.5941 67.5147 12.5433 67.4479 12.5175 67.411C12.4815 66.9466 12.4607 66.4981 12.4607 66.0734C12.4636 63.7093 12.992 61.9282 13.8152 60.512C15.0471 58.393 17.0055 57.0365 19.0996 56.0708C21.1926 55.104 23.3575 54.5678 24.9403 54.0135C25.3658 53.8621 25.8094 53.6658 26.2539 53.4494L31.1467 65.4096L37.5006 57.466L43.8545 65.4096L48.7492 53.4443C49.1779 53.6516 49.6113 53.846 50.038 54.0055C51.1005 54.4022 52.4072 54.769 53.7925 55.2633C55.8697 56.0009 58.0823 57.0194 59.7288 58.66C61.3683 60.3086 62.5265 62.5351 62.5396 66.0774C62.5394 66.5002 62.5185 66.9466 62.4816 67.411Z" fill="#1C2430"/>
<path d="M37.4686 70.4488C37.997 70.4488 38.4254 70.0204 38.4254 69.492C38.4254 68.9635 37.997 68.5352 37.4686 68.5352C36.9401 68.5352 36.5117 68.9635 36.5117 69.492C36.5117 70.0204 36.9401 70.4488 37.4686 70.4488Z" fill="#1C2430"/>
<path d="M37.5323 64.5167C38.0607 64.5167 38.4891 64.0883 38.4891 63.5599C38.4891 63.0314 38.0607 62.603 37.5323 62.603C37.0038 62.603 36.5754 63.0314 36.5754 63.5599C36.5754 64.0883 37.0038 64.5167 37.5323 64.5167Z" fill="#1C2430"/>
</g>
<defs>
<clipPath id="clip0_258_393">
<rect width="75" height="75" fill="white"/>
</clipPath>
</defs>
</svg>
