<svg width="75" height="75" viewBox="0 0 75 75" fill="none" xmlns="http://www.w3.org/2000/svg">
<path d="M63.4089 59.2187C61.8333 56.5291 59.3936 54.9109 57.0476 53.8307C54.6983 52.7516 52.3743 52.17 50.9776 51.643C49.8702 51.2316 48.6633 50.589 47.8024 49.8928C47.3713 49.5491 47.0299 49.1923 46.8248 48.8815C46.613 48.5694 46.5487 48.3272 46.5487 48.1646C46.5487 47.0526 46.5487 46.5496 46.5487 44.8584C48.0305 43.2085 50.1602 40.6543 51.0333 36.6028C51.3399 36.4654 51.6421 36.3105 51.9324 36.1064C52.659 35.6066 53.2733 34.8811 53.7939 33.8936C54.3198 32.9018 54.7836 31.6338 55.279 29.899C55.5289 29.0185 55.6467 28.2545 55.6467 27.5737C55.6467 26.7891 55.4851 26.1094 55.1883 25.5563C54.933 25.0739 54.5838 24.7271 54.2227 24.4695C59.0171 13.7677 52.862 5.14239 52.862 5.14239L54.6689 0.497516C54.6689 0.497516 46.9273 1.01358 40.0477 0.239997C20.1706 -1.99345 19.0598 11.9379 19.0598 18.1301C19.0598 21.84 19.6141 23.9961 20.0942 25.1702C19.997 25.2978 19.8923 25.4091 19.8116 25.5575C19.516 26.1096 19.3544 26.7904 19.3544 27.5749C19.3566 28.2545 19.4712 29.0185 19.7233 29.899C20.3867 32.2089 20.9846 33.6994 21.7594 34.7948C22.1479 35.3382 22.5876 35.7748 23.0677 36.1064C23.36 36.3105 23.6624 36.4654 23.9668 36.6028C24.8419 40.652 26.9706 43.2074 28.4524 44.8572C28.4524 46.5485 28.4524 47.0526 28.4524 48.1646C28.4556 48.3031 28.3858 48.5573 28.1556 48.8858C27.8206 49.3779 27.1638 49.9638 26.4 50.4592C25.6395 50.9579 24.7732 51.3802 24.0454 51.6355C23.0994 51.9693 21.7409 52.3414 20.2537 52.8673C18.0201 53.6585 15.4593 54.7977 13.4091 56.8445C11.3556 58.8827 9.89563 61.8712 9.90779 65.974C9.90779 66.4956 9.93064 67.0369 9.97869 67.5944C10.0093 67.9446 10.1313 68.2338 10.2787 68.4805C10.5635 68.9398 10.9464 69.2965 11.4277 69.6589C12.2712 70.2841 13.4419 70.8995 14.964 71.5063C19.5141 73.3142 27.2121 74.9979 37.5013 74.9999C45.8616 74.9989 52.5153 73.8849 57.1549 72.4991C59.4746 71.8051 61.2869 71.0478 62.5887 70.2982C63.2422 69.9217 63.7682 69.5486 64.1839 69.1427C64.3912 68.9397 64.5724 68.728 64.7218 68.4803C64.8712 68.2337 64.9935 67.9445 65.0242 67.5954C65.071 67.0367 65.0928 66.4978 65.0928 65.9784C65.0948 63.245 64.4597 61.0071 63.4089 59.2187ZM35.6505 72.6986C35.6145 72.6975 35.5784 72.6975 35.5414 72.6975L31.9068 64.168L31.9537 64.205L35.2598 60.0718L35.8021 62.3533H35.9473L35.6505 72.6986ZM31.1975 62.5052L27.0283 52.7265C27.551 52.4232 28.0648 52.0893 28.5362 51.715C28.8242 51.4837 29.0993 51.2404 29.3512 50.9817L36.318 56.1036L31.1975 62.5052ZM30.3323 49.6549C30.5625 49.2077 30.7197 48.7123 30.7219 48.1646C30.7219 46.9599 30.7219 46.4886 30.7219 44.4241V43.9877L30.4316 43.6647C28.8832 41.9397 26.7872 39.6504 26.0593 35.5827L25.9436 34.9313L25.3228 34.7108C24.9279 34.5702 24.6279 34.4251 24.3636 34.2428C23.9763 33.9691 23.6239 33.5946 23.2125 32.8288C22.8076 32.0671 22.3755 30.928 21.9065 29.275C21.698 28.5537 21.626 27.9918 21.626 27.575C21.626 27.0896 21.7187 26.808 21.8137 26.628C21.9567 26.3681 22.1324 26.2569 22.356 26.1676C22.5088 26.1086 22.6702 26.0867 22.763 26.0791L23.6435 26.2657L24.9081 28.4513C24.9081 28.4513 24.8394 17.5814 25.9404 16.7544C27.3163 15.7211 35.2313 18.8188 37.6383 18.8188C40.0474 18.8188 47.7018 15.4635 49.0603 16.4794C50.6403 17.6611 50.3685 29.4834 50.3685 29.4834L51.6626 26.1348L52.193 26.0779C52.2857 26.0791 52.624 26.1184 52.8542 26.27C52.983 26.3541 53.0899 26.451 53.187 26.6278C53.2809 26.8079 53.3737 27.0894 53.3737 27.5738C53.3757 27.9918 53.3016 28.5537 53.0955 29.276C52.4691 31.48 51.9084 32.7632 51.3922 33.4747C51.1346 33.8347 50.899 34.0586 50.636 34.2428C50.3741 34.4251 50.0719 34.5702 49.6768 34.7108L49.056 34.9313L48.9415 35.5827C48.2159 39.6504 46.1187 41.9397 44.5704 43.6647L44.278 43.9877V44.4241C44.278 46.4886 44.278 46.9599 44.278 48.1646C44.2802 48.7101 44.4296 49.2109 44.6577 49.6638L37.5009 54.9219L30.3323 49.6549ZM39.4543 72.7073C39.4182 72.7095 39.3866 72.7105 39.3494 72.7105L39.0516 62.3535H39.2022L39.7434 60.072L43.0484 64.204L43.0953 64.168L39.4543 72.7073ZM43.8024 62.5052L38.6827 56.1047L45.6431 50.9883C46.1187 51.4739 46.6676 51.9103 47.2623 52.302C47.4914 52.4516 47.7381 52.5748 47.9781 52.7111L43.8024 62.5052Z" fill="#1C2430"/>
</svg>
